<svg width="460" height="462" viewBox="0 0 460 462" fill="none" xmlns="http://www.w3.org/2000/svg">
<path fill-rule="evenodd" clip-rule="evenodd" d="M43 67.4995H144.5C145.605 67.4995 146.5 68.3949 146.5 69.4995V96.9995C146.5 98.1041 145.605 98.9995 144.5 98.9995H105.5C104.395 98.9995 103.5 99.8949 103.5 100.999V329.5C103.5 330.604 102.605 331.5 101.5 331.5H63.5C62.3954 331.5 61.5 330.604 61.5 329.5V100.999C61.5 99.8949 60.6046 98.9995 59.5 98.9995H2.5C1.39543 98.9995 0.5 99.8949 0.5 100.999V367.5C0.5 420 73.5 462 103.5 462H364.5C409 462 459.5 400 459.5 378V330H320C318.895 330 318 329.104 318 328V69.4995C318 68.3949 318.895 67.4995 320 67.4995H421.5C422.605 67.4995 423.5 68.3949 423.5 69.4995V98.9995C423.5 100.104 422.605 100.999 421.5 100.999H362.5C361.395 100.999 360.5 101.895 360.5 102.999V177C360.5 178.104 361.395 179 362.5 179H412C413.105 179 414 179.895 414 181V210C414 211.104 413.105 212 412 212H362.5C361.395 212 360.5 212.895 360.5 214V292C360.5 293.104 361.395 294 362.5 294H459.5V88.4995C459.5 46.999 395 0.499512 360.5 0.499512L310.649 0.49953C235.683 0.499564 107.382 0.499622 83 0.499512C51 0.499367 1.5 67.4995 12 67.4995H43ZM276.5 67.4995H167V329.5C167 330.604 167.895 331.5 169 331.5H199.5C200.605 331.5 201.5 330.604 201.5 329.5V100.999C201.5 99.8949 202.395 98.9995 203.5 98.9995H252.5C253.605 98.9995 254.5 99.8949 254.5 100.999V182C254.5 183.104 253.605 184 252.5 184H219C217.895 184 217 184.895 217 186V211.662C217 211.885 217.037 212.107 217.111 212.318L257.533 328.656C257.813 329.46 258.571 330 259.422 330H291.71C293.08 330 294.044 328.654 293.604 327.358L254.5 212H276.5C280.5 212 288 201 288 195.5V79.4995C288 73.499 280.5 67.4995 276.5 67.4995ZM58.5 357C58.5 356.447 58.9477 356 59.5 356H91C91.5523 356 92 356.447 92 357V365.5C92 366.052 91.5523 366.5 91 366.5H72C71.4477 366.5 71 366.947 71 367.5V387.5C71 388.052 71.4477 388.5 72 388.5H89C89.5523 388.5 90 388.947 90 389.5V400.5C90 401.052 89.5523 401.5 89 401.5H72C71.4477 401.5 71 401.947 71 402.5V423C71 423.552 71.4477 424 72 424H91C91.5523 424 92 424.447 92 425V436.5C92 437.052 91.5523 437.5 91 437.5H59.5C58.9477 437.5 58.5 437.052 58.5 436.5V357ZM114 357C114 356.447 113.552 356 113 356H100C99.4477 356 99 356.447 99 357V436.5C99 437.052 99.4477 437.5 100 437.5H131C131.552 437.5 132 437.052 132 436.5V425C132 424.447 131.552 424 131 424H115C114.448 424 114 423.552 114 423V357ZM193.343 437.5C192.856 437.5 192.44 437.149 192.357 436.669L178.701 357.169C178.596 356.558 179.066 356 179.686 356H191.612C192.119 356 192.545 356.378 192.605 356.881L197.395 397.118C197.455 397.621 197.881 398 198.388 398H201.591C202.106 398 202.537 397.608 202.586 397.094L206.414 356.905C206.463 356.392 206.894 356 207.409 356H220.792C221.419 356 221.891 356.57 221.774 357.186L206.655 436.686C206.565 437.158 206.152 437.5 205.672 437.5H193.343ZM239.81 356C239.338 356 238.93 356.33 238.832 356.792L222.257 434.792C222.124 435.414 222.599 436 223.235 436H233.698C234.167 436 234.572 435.674 234.674 435.217L237.326 423.283C237.428 422.825 237.833 422.5 238.302 422.5H252.168C252.65 422.5 253.064 422.844 253.151 423.318L255.349 435.182C255.436 435.656 255.85 436 256.332 436H266.28C266.911 436 267.385 435.422 267.261 434.803L251.661 356.803C251.567 356.336 251.157 356 250.68 356H239.81ZM307.5 357C307.5 356.447 307.052 356 306.5 356H271C270.448 356 270 356.447 270 357V365C270 365.552 270.448 366 271 366H280C280.552 366 281 366.447 281 367V435C281 435.552 281.448 436 282 436H295C295.552 436 296 435.552 296 435V367C296 366.447 296.448 366 297 366H306.5C307.052 366 307.5 365.552 307.5 365V357ZM316 436C315.448 436 315 435.552 315 435V357C315 356.447 315.448 356 316 356H354.5C355.052 356 355.5 356.447 355.5 357V435C355.5 435.552 355.052 436 354.5 436H316ZM362.5 436C361.948 436 361.5 435.552 361.5 435V357C361.5 356.447 361.948 356 362.5 356H403C403.552 356 404 356.447 404 357V395.846C404 396.875 403.472 397.833 402.602 398.383L395.85 402.647C395.06 403.146 394.721 404.125 395.033 405.005L405.528 434.666C405.758 435.317 405.276 436 404.585 436H392.217C391.789 436 391.407 435.726 391.27 435.32L380.73 404.179C380.593 403.773 380.211 403.5 379.783 403.5H377V436H362.5ZM139.5 356H171C171.552 356 172 356.447 172 357V365.5C172 366.052 171.552 366.5 171 366.5H152C151.448 366.5 151 366.947 151 367.5V387.5C151 388.052 151.448 388.5 152 388.5H169C169.552 388.5 170 388.947 170 389.5V400.5C170 401.052 169.552 401.5 169 401.5H152C151.448 401.5 151 401.947 151 402.5V423C151 423.552 151.448 424 152 424H171C171.552 424 172 424.447 172 425V436.5C172 437.052 171.552 437.5 171 437.5H139.5C138.948 437.5 138.5 437.052 138.5 436.5V357C138.5 356.447 138.948 356 139.5 356Z" fill="white"/>
<path d="M237.687 405.328C237.587 406.496 238.507 407.5 239.68 407.5H250.782C251.968 407.5 252.894 406.474 252.772 405.294L250.186 380.294C250.08 379.275 249.221 378.5 248.196 378.5H241.835C240.797 378.5 239.932 379.294 239.842 380.328L237.687 405.328Z" fill="white"/>
<path d="M329.942 366C329.031 366 328.169 366.414 327.599 367.126L325.157 370.178C324.732 370.71 324.5 371.371 324.5 372.052V422.5C324.5 423.149 324.711 423.78 325.1 424.3V424.3C325.667 425.055 326.556 425.5 327.5 425.5H340C341.657 425.5 343 424.156 343 422.5V369C343 367.343 341.657 366 340 366H329.942Z" fill="white"/>
<path d="M377 366H389L391.278 368.657C391.744 369.201 392 369.894 392 370.61V387.672C392 388.202 391.789 388.711 391.414 389.086L387.112 393.388C386.159 394.341 384.688 394.541 383.515 393.878L374 388.5V369.5C374 368 375.5 366 377 366Z" fill="white"/>
</svg>
